# xmcd CD Database Entry
#
# Track frame offsets:
# 150
# 19632
# 43225
# 62036
# 83891
# 96581
# 115861
# 135706
# 152616
# 171940
# 183889
# 201051
# 221970
# 236550
# 251978
# 263981
# 280998
# 299962
#
# Disc length: 4187 seconds
#
# Revision: 1
# Processed by: cddbd v1.4PL0 Copyright (c) Steve Scherf et al.
# Submitted via: tcd 2.0b
#
DISCID=1e105912
DTITLE=Inconnu - Inconnu
DYEAR=1900
DGENRE=
TTITLE0=Piste 1
TTITLE1=Piste 2
TTITLE2=Piste 3
TTITLE3=Piste 4
TTITLE4=Piste 5
TTITLE5=Piste 6
TTITLE6=Piste 7
TTITLE7=Piste 8
TTITLE8=Piste 9
TTITLE9=Piste 10
TTITLE10=Piste 11
TTITLE11=Piste 12
TTITLE12=Piste 13
TTITLE13=Piste 14
TTITLE14=Piste 15
TTITLE15=Piste 16
TTITLE16=Piste 17
TTITLE17=Piste 18
EXTD=
EXTT0=
EXTT1=
EXTT2=
EXTT3=
EXTT4=
EXTT5=
EXTT6=
EXTT7=
EXTT8=
EXTT9=
EXTT10=
EXTT11=
EXTT12=
EXTT13=
EXTT14=
EXTT15=
EXTT16=
EXTT17=
PLAYORDER=
